<mxfile host="app.diagrams.net" modified="2023-04-29T05:50:12.592Z" agent="Mozilla/5.0 (Windows NT 10.0; Win64; x64) AppleWebKit/537.36 (KHTML, like Gecko) Chrome/112.0.0.0 Safari/537.36 Edg/112.0.1722.58" etag="kZ-L1TQ9rtAjyNqqlcdS" version="21.2.3" type="google">
  <diagram name="第 1 页" id="9GRlFMcYU8W17-ktjxk8">
    <mxGraphModel grid="1" page="1" gridSize="10" guides="1" tooltips="1" connect="1" arrows="1" fold="1" pageScale="1" pageWidth="827" pageHeight="1169" math="0" shadow="0">
      <root>
        <mxCell id="0" />
        <mxCell id="1" parent="0" />
        <mxCell id="An_t9UlqZCRhdy4P4HhH-2" value="" style="rounded=0;whiteSpace=wrap;html=1;" vertex="1" parent="1">
          <mxGeometry x="70" y="-1140" width="2370" height="2510" as="geometry" />
        </mxCell>
        <mxCell id="An_t9UlqZCRhdy4P4HhH-152" value="" style="rounded=0;whiteSpace=wrap;html=1;dashed=1;" vertex="1" parent="1">
          <mxGeometry x="1826.93" y="280" width="400" height="110" as="geometry" />
        </mxCell>
        <mxCell id="An_t9UlqZCRhdy4P4HhH-150" value="" style="rounded=0;whiteSpace=wrap;html=1;dashed=1;" vertex="1" parent="1">
          <mxGeometry x="1120" y="-160" width="620" height="290" as="geometry" />
        </mxCell>
        <mxCell id="An_t9UlqZCRhdy4P4HhH-132" value="" style="rounded=0;whiteSpace=wrap;html=1;dashed=1;" vertex="1" parent="1">
          <mxGeometry x="1820" y="-160" width="410" height="350" as="geometry" />
        </mxCell>
        <mxCell id="An_t9UlqZCRhdy4P4HhH-114" value="" style="rounded=0;whiteSpace=wrap;html=1;dashed=1;" vertex="1" parent="1">
          <mxGeometry x="455.78999999999996" y="1060" width="330" height="240" as="geometry" />
        </mxCell>
        <mxCell id="An_t9UlqZCRhdy4P4HhH-87" value="" style="rounded=0;whiteSpace=wrap;html=1;dashed=1;" vertex="1" parent="1">
          <mxGeometry x="158" y="-90" width="841" height="740" as="geometry" />
        </mxCell>
        <mxCell id="An_t9UlqZCRhdy4P4HhH-83" value="" style="rounded=0;whiteSpace=wrap;html=1;dashed=1;" vertex="1" parent="1">
          <mxGeometry x="158" y="-800" width="841" height="610" as="geometry" />
        </mxCell>
        <mxCell id="An_t9UlqZCRhdy4P4HhH-3" value="" style="rounded=0;whiteSpace=wrap;html=1;dashed=1;" vertex="1" parent="1">
          <mxGeometry x="1158" y="-802.5" width="841" height="530" as="geometry" />
        </mxCell>
        <mxCell id="An_t9UlqZCRhdy4P4HhH-4" value="Requests" style="rounded=0;whiteSpace=wrap;html=1;fillColor=#0080FF;fontFamily=Times New Roman;fontSize=20;" vertex="1" parent="1">
          <mxGeometry x="2260" y="-500" width="156" height="50" as="geometry" />
        </mxCell>
        <mxCell id="An_t9UlqZCRhdy4P4HhH-6" value="Flask" style="rounded=0;whiteSpace=wrap;html=1;fillColor=#0080FF;fontFamily=Times New Roman;fontSize=20;" vertex="1" parent="1">
          <mxGeometry x="2260" y="310" width="156" height="50" as="geometry" />
        </mxCell>
        <mxCell id="An_t9UlqZCRhdy4P4HhH-18" style="edgeStyle=orthogonalEdgeStyle;rounded=0;orthogonalLoop=1;jettySize=auto;html=1;exitX=0.5;exitY=1;exitDx=0;exitDy=0;entryX=0.5;entryY=0;entryDx=0;entryDy=0;" edge="1" parent="1" source="An_t9UlqZCRhdy4P4HhH-7" target="An_t9UlqZCRhdy4P4HhH-8">
          <mxGeometry relative="1" as="geometry" />
        </mxCell>
        <mxCell id="An_t9UlqZCRhdy4P4HhH-23" style="edgeStyle=orthogonalEdgeStyle;rounded=0;orthogonalLoop=1;jettySize=auto;html=1;exitX=0;exitY=0.75;exitDx=0;exitDy=0;entryX=0;entryY=0.5;entryDx=0;entryDy=0;" edge="1" parent="1" source="An_t9UlqZCRhdy4P4HhH-7" target="An_t9UlqZCRhdy4P4HhH-22">
          <mxGeometry relative="1" as="geometry" />
        </mxCell>
        <mxCell id="An_t9UlqZCRhdy4P4HhH-37" style="edgeStyle=orthogonalEdgeStyle;rounded=0;orthogonalLoop=1;jettySize=auto;html=1;exitX=0;exitY=0.5;exitDx=0;exitDy=0;" edge="1" parent="1" source="An_t9UlqZCRhdy4P4HhH-7" target="An_t9UlqZCRhdy4P4HhH-30">
          <mxGeometry relative="1" as="geometry" />
        </mxCell>
        <mxCell id="An_t9UlqZCRhdy4P4HhH-77" style="edgeStyle=orthogonalEdgeStyle;rounded=0;orthogonalLoop=1;jettySize=auto;html=1;exitX=0.25;exitY=0;exitDx=0;exitDy=0;entryX=0;entryY=0.5;entryDx=0;entryDy=0;" edge="1" parent="1" source="An_t9UlqZCRhdy4P4HhH-7" target="An_t9UlqZCRhdy4P4HhH-65">
          <mxGeometry relative="1" as="geometry" />
        </mxCell>
        <mxCell id="An_t9UlqZCRhdy4P4HhH-78" style="edgeStyle=orthogonalEdgeStyle;rounded=0;orthogonalLoop=1;jettySize=auto;html=1;exitX=0.25;exitY=0;exitDx=0;exitDy=0;entryX=0;entryY=0.5;entryDx=0;entryDy=0;" edge="1" parent="1" source="An_t9UlqZCRhdy4P4HhH-7" target="An_t9UlqZCRhdy4P4HhH-66">
          <mxGeometry relative="1" as="geometry" />
        </mxCell>
        <mxCell id="An_t9UlqZCRhdy4P4HhH-7" value="request_method" style="rounded=0;whiteSpace=wrap;html=1;fillColor=#42E0FF;fontFamily=Times New Roman;fontSize=20;" vertex="1" parent="1">
          <mxGeometry x="1668" y="-600" width="260" height="50" as="geometry" />
        </mxCell>
        <mxCell id="An_t9UlqZCRhdy4P4HhH-20" style="edgeStyle=orthogonalEdgeStyle;rounded=0;orthogonalLoop=1;jettySize=auto;html=1;exitX=1;exitY=0.5;exitDx=0;exitDy=0;entryX=0;entryY=0.5;entryDx=0;entryDy=0;" edge="1" parent="1" source="An_t9UlqZCRhdy4P4HhH-8" target="An_t9UlqZCRhdy4P4HhH-4">
          <mxGeometry relative="1" as="geometry" />
        </mxCell>
        <mxCell id="An_t9UlqZCRhdy4P4HhH-8" value="request_http_method_wrapper" style="rounded=0;whiteSpace=wrap;html=1;fillColor=#42E0FF;fontFamily=Times New Roman;fontSize=20;" vertex="1" parent="1">
          <mxGeometry x="1668" y="-500" width="260" height="50" as="geometry" />
        </mxCell>
        <mxCell id="An_t9UlqZCRhdy4P4HhH-21" value="Wrapper Pattern" style="text;html=1;strokeColor=none;fillColor=none;align=center;verticalAlign=middle;whiteSpace=wrap;rounded=0;fontSize=20;fontFamily=Times New Roman;" vertex="1" parent="1">
          <mxGeometry x="1498.93" y="-780" width="180" height="30" as="geometry" />
        </mxCell>
        <mxCell id="An_t9UlqZCRhdy4P4HhH-22" value="assert_result" style="rounded=0;whiteSpace=wrap;html=1;fillColor=#42E0FF;fontFamily=Times New Roman;fontSize=20;" vertex="1" parent="1">
          <mxGeometry x="1668" y="-400" width="260" height="50" as="geometry" />
        </mxCell>
        <mxCell id="An_t9UlqZCRhdy4P4HhH-30" value="test_record" style="rounded=0;whiteSpace=wrap;html=1;fillColor=#42E0FF;fontFamily=Times New Roman;fontSize=20;" vertex="1" parent="1">
          <mxGeometry x="1338" y="-540" width="260" height="50" as="geometry" />
        </mxCell>
        <mxCell id="An_t9UlqZCRhdy4P4HhH-72" style="edgeStyle=orthogonalEdgeStyle;rounded=0;orthogonalLoop=1;jettySize=auto;html=1;exitX=0;exitY=0.5;exitDx=0;exitDy=0;entryX=0;entryY=0.5;entryDx=0;entryDy=0;" edge="1" parent="1" source="An_t9UlqZCRhdy4P4HhH-34" target="An_t9UlqZCRhdy4P4HhH-44">
          <mxGeometry relative="1" as="geometry" />
        </mxCell>
        <mxCell id="An_t9UlqZCRhdy4P4HhH-73" style="edgeStyle=orthogonalEdgeStyle;rounded=0;orthogonalLoop=1;jettySize=auto;html=1;exitX=0;exitY=0.5;exitDx=0;exitDy=0;entryX=0;entryY=0.5;entryDx=0;entryDy=0;" edge="1" parent="1" source="An_t9UlqZCRhdy4P4HhH-34" target="An_t9UlqZCRhdy4P4HhH-40">
          <mxGeometry relative="1" as="geometry" />
        </mxCell>
        <mxCell id="An_t9UlqZCRhdy4P4HhH-74" style="edgeStyle=orthogonalEdgeStyle;rounded=0;orthogonalLoop=1;jettySize=auto;html=1;exitX=0;exitY=0.5;exitDx=0;exitDy=0;entryX=0;entryY=0.5;entryDx=0;entryDy=0;" edge="1" parent="1" source="An_t9UlqZCRhdy4P4HhH-34" target="An_t9UlqZCRhdy4P4HhH-51">
          <mxGeometry relative="1" as="geometry" />
        </mxCell>
        <mxCell id="An_t9UlqZCRhdy4P4HhH-75" style="edgeStyle=orthogonalEdgeStyle;rounded=0;orthogonalLoop=1;jettySize=auto;html=1;exitX=0;exitY=0.5;exitDx=0;exitDy=0;entryX=0;entryY=0.5;entryDx=0;entryDy=0;" edge="1" parent="1" source="An_t9UlqZCRhdy4P4HhH-34" target="An_t9UlqZCRhdy4P4HhH-52">
          <mxGeometry relative="1" as="geometry" />
        </mxCell>
        <mxCell id="An_t9UlqZCRhdy4P4HhH-76" style="edgeStyle=orthogonalEdgeStyle;rounded=0;orthogonalLoop=1;jettySize=auto;html=1;exitX=0;exitY=0.5;exitDx=0;exitDy=0;entryX=0;entryY=0.5;entryDx=0;entryDy=0;" edge="1" parent="1" source="An_t9UlqZCRhdy4P4HhH-34" target="An_t9UlqZCRhdy4P4HhH-53">
          <mxGeometry relative="1" as="geometry" />
        </mxCell>
        <mxCell id="An_t9UlqZCRhdy4P4HhH-81" style="edgeStyle=orthogonalEdgeStyle;rounded=0;orthogonalLoop=1;jettySize=auto;html=1;exitX=1;exitY=0.5;exitDx=0;exitDy=0;entryX=1;entryY=0.5;entryDx=0;entryDy=0;" edge="1" parent="1" source="An_t9UlqZCRhdy4P4HhH-34" target="An_t9UlqZCRhdy4P4HhH-79">
          <mxGeometry relative="1" as="geometry" />
        </mxCell>
        <mxCell id="An_t9UlqZCRhdy4P4HhH-82" style="edgeStyle=orthogonalEdgeStyle;rounded=0;orthogonalLoop=1;jettySize=auto;html=1;exitX=1;exitY=0.5;exitDx=0;exitDy=0;entryX=1;entryY=0.5;entryDx=0;entryDy=0;" edge="1" parent="1" source="An_t9UlqZCRhdy4P4HhH-34" target="An_t9UlqZCRhdy4P4HhH-80">
          <mxGeometry relative="1" as="geometry" />
        </mxCell>
        <mxCell id="An_t9UlqZCRhdy4P4HhH-98" style="edgeStyle=orthogonalEdgeStyle;rounded=0;orthogonalLoop=1;jettySize=auto;html=1;exitX=1;exitY=0.5;exitDx=0;exitDy=0;entryX=1;entryY=0.5;entryDx=0;entryDy=0;" edge="1" parent="1" source="An_t9UlqZCRhdy4P4HhH-34" target="An_t9UlqZCRhdy4P4HhH-97">
          <mxGeometry relative="1" as="geometry" />
        </mxCell>
        <mxCell id="An_t9UlqZCRhdy4P4HhH-34" value="callback executor" style="rounded=0;whiteSpace=wrap;html=1;fillColor=#42E0FF;fontFamily=Times New Roman;fontSize=20;" vertex="1" parent="1">
          <mxGeometry x="424.14" y="-760" width="260" height="50" as="geometry" />
        </mxCell>
        <mxCell id="An_t9UlqZCRhdy4P4HhH-40" value="request_method" style="rounded=0;whiteSpace=wrap;html=1;fillColor=#42E0FF;fontFamily=Times New Roman;fontSize=20;" vertex="1" parent="1">
          <mxGeometry x="308.14" y="-540" width="260" height="50" as="geometry" />
        </mxCell>
        <mxCell id="An_t9UlqZCRhdy4P4HhH-44" value="mock_server" style="rounded=0;whiteSpace=wrap;html=1;fillColor=#42E0FF;fontFamily=Times New Roman;fontSize=20;" vertex="1" parent="1">
          <mxGeometry x="308.14" y="-630" width="260" height="50" as="geometry" />
        </mxCell>
        <mxCell id="An_t9UlqZCRhdy4P4HhH-51" value="xml report generator" style="rounded=0;whiteSpace=wrap;html=1;fillColor=#42E0FF;fontFamily=Times New Roman;fontSize=20;" vertex="1" parent="1">
          <mxGeometry x="308.14" y="-450" width="260" height="50" as="geometry" />
        </mxCell>
        <mxCell id="An_t9UlqZCRhdy4P4HhH-52" value="json report generator" style="rounded=0;whiteSpace=wrap;html=1;fillColor=#42E0FF;fontFamily=Times New Roman;fontSize=20;" vertex="1" parent="1">
          <mxGeometry x="308.14" y="-360" width="260" height="50" as="geometry" />
        </mxCell>
        <mxCell id="An_t9UlqZCRhdy4P4HhH-53" value="html report generator" style="rounded=0;whiteSpace=wrap;html=1;fillColor=#42E0FF;fontFamily=Times New Roman;fontSize=20;" vertex="1" parent="1">
          <mxGeometry x="308.14" y="-280" width="260" height="50" as="geometry" />
        </mxCell>
        <mxCell id="An_t9UlqZCRhdy4P4HhH-64" value="Wrapper" style="text;html=1;strokeColor=none;fillColor=none;align=center;verticalAlign=middle;whiteSpace=wrap;rounded=0;fontSize=30;fontFamily=Times New Roman;fontStyle=1" vertex="1" parent="1">
          <mxGeometry x="1488.5" y="-840" width="180" height="30" as="geometry" />
        </mxCell>
        <mxCell id="An_t9UlqZCRhdy4P4HhH-65" value="exceptions" style="rounded=0;whiteSpace=wrap;html=1;fillColor=#42E0FF;fontFamily=Times New Roman;fontSize=20;" vertex="1" parent="1">
          <mxGeometry x="1208" y="-450" width="260" height="50" as="geometry" />
        </mxCell>
        <mxCell id="An_t9UlqZCRhdy4P4HhH-66" value="exception_tags" style="rounded=0;whiteSpace=wrap;html=1;fillColor=#42E0FF;fontFamily=Times New Roman;fontSize=20;" vertex="1" parent="1">
          <mxGeometry x="1208" y="-370" width="260" height="50" as="geometry" />
        </mxCell>
        <mxCell id="An_t9UlqZCRhdy4P4HhH-79" value="exceptions" style="rounded=0;whiteSpace=wrap;html=1;fillColor=#42E0FF;fontFamily=Times New Roman;fontSize=20;" vertex="1" parent="1">
          <mxGeometry x="614.14" y="-620" width="260" height="50" as="geometry" />
        </mxCell>
        <mxCell id="An_t9UlqZCRhdy4P4HhH-80" value="exception_tags" style="rounded=0;whiteSpace=wrap;html=1;fillColor=#42E0FF;fontFamily=Times New Roman;fontSize=20;" vertex="1" parent="1">
          <mxGeometry x="614.14" y="-540" width="260" height="50" as="geometry" />
        </mxCell>
        <mxCell id="An_t9UlqZCRhdy4P4HhH-84" value="Callback Executor" style="text;html=1;strokeColor=none;fillColor=none;align=center;verticalAlign=middle;whiteSpace=wrap;rounded=0;fontSize=30;fontFamily=Times New Roman;fontStyle=1" vertex="1" parent="1">
          <mxGeometry x="446.57" y="-850" width="263.86" height="30" as="geometry" />
        </mxCell>
        <mxCell id="An_t9UlqZCRhdy4P4HhH-86" value="APITestka need all modules" style="rounded=0;whiteSpace=wrap;html=1;fillColor=#42E0FF;fontFamily=Times New Roman;fontSize=20;" vertex="1" parent="1">
          <mxGeometry x="1111" y="-1050" width="260" height="50" as="geometry" />
        </mxCell>
        <mxCell id="An_t9UlqZCRhdy4P4HhH-88" value="Executor" style="text;html=1;strokeColor=none;fillColor=none;align=center;verticalAlign=middle;whiteSpace=wrap;rounded=0;fontSize=30;fontFamily=Times New Roman;fontStyle=1" vertex="1" parent="1">
          <mxGeometry x="422.21" y="-130" width="263.86" height="30" as="geometry" />
        </mxCell>
        <mxCell id="An_t9UlqZCRhdy4P4HhH-100" style="edgeStyle=orthogonalEdgeStyle;rounded=0;orthogonalLoop=1;jettySize=auto;html=1;exitX=0;exitY=0.5;exitDx=0;exitDy=0;entryX=0;entryY=0.5;entryDx=0;entryDy=0;" edge="1" parent="1" source="An_t9UlqZCRhdy4P4HhH-89" target="An_t9UlqZCRhdy4P4HhH-91">
          <mxGeometry relative="1" as="geometry" />
        </mxCell>
        <mxCell id="An_t9UlqZCRhdy4P4HhH-101" style="edgeStyle=orthogonalEdgeStyle;rounded=0;orthogonalLoop=1;jettySize=auto;html=1;exitX=0;exitY=0.5;exitDx=0;exitDy=0;entryX=0;entryY=0.5;entryDx=0;entryDy=0;" edge="1" parent="1" source="An_t9UlqZCRhdy4P4HhH-89" target="An_t9UlqZCRhdy4P4HhH-90">
          <mxGeometry relative="1" as="geometry" />
        </mxCell>
        <mxCell id="An_t9UlqZCRhdy4P4HhH-102" style="edgeStyle=orthogonalEdgeStyle;rounded=0;orthogonalLoop=1;jettySize=auto;html=1;exitX=0;exitY=0.5;exitDx=0;exitDy=0;entryX=0;entryY=0.5;entryDx=0;entryDy=0;" edge="1" parent="1" source="An_t9UlqZCRhdy4P4HhH-89" target="An_t9UlqZCRhdy4P4HhH-92">
          <mxGeometry relative="1" as="geometry" />
        </mxCell>
        <mxCell id="An_t9UlqZCRhdy4P4HhH-103" style="edgeStyle=orthogonalEdgeStyle;rounded=0;orthogonalLoop=1;jettySize=auto;html=1;exitX=0;exitY=0.5;exitDx=0;exitDy=0;entryX=0;entryY=0.5;entryDx=0;entryDy=0;" edge="1" parent="1" source="An_t9UlqZCRhdy4P4HhH-89" target="An_t9UlqZCRhdy4P4HhH-93">
          <mxGeometry relative="1" as="geometry" />
        </mxCell>
        <mxCell id="An_t9UlqZCRhdy4P4HhH-104" style="edgeStyle=orthogonalEdgeStyle;rounded=0;orthogonalLoop=1;jettySize=auto;html=1;exitX=0;exitY=0.5;exitDx=0;exitDy=0;entryX=0;entryY=0.5;entryDx=0;entryDy=0;" edge="1" parent="1" source="An_t9UlqZCRhdy4P4HhH-89" target="An_t9UlqZCRhdy4P4HhH-94">
          <mxGeometry relative="1" as="geometry" />
        </mxCell>
        <mxCell id="An_t9UlqZCRhdy4P4HhH-105" style="edgeStyle=orthogonalEdgeStyle;rounded=0;orthogonalLoop=1;jettySize=auto;html=1;exitX=1;exitY=0.5;exitDx=0;exitDy=0;entryX=1;entryY=0.5;entryDx=0;entryDy=0;" edge="1" parent="1" source="An_t9UlqZCRhdy4P4HhH-89" target="An_t9UlqZCRhdy4P4HhH-95">
          <mxGeometry relative="1" as="geometry" />
        </mxCell>
        <mxCell id="An_t9UlqZCRhdy4P4HhH-106" style="edgeStyle=orthogonalEdgeStyle;rounded=0;orthogonalLoop=1;jettySize=auto;html=1;exitX=1;exitY=0.5;exitDx=0;exitDy=0;entryX=1;entryY=0.5;entryDx=0;entryDy=0;" edge="1" parent="1" source="An_t9UlqZCRhdy4P4HhH-89" target="An_t9UlqZCRhdy4P4HhH-96">
          <mxGeometry relative="1" as="geometry" />
        </mxCell>
        <mxCell id="An_t9UlqZCRhdy4P4HhH-107" style="edgeStyle=orthogonalEdgeStyle;rounded=0;orthogonalLoop=1;jettySize=auto;html=1;exitX=1;exitY=0.5;exitDx=0;exitDy=0;entryX=1;entryY=0.5;entryDx=0;entryDy=0;" edge="1" parent="1" source="An_t9UlqZCRhdy4P4HhH-89" target="An_t9UlqZCRhdy4P4HhH-99">
          <mxGeometry relative="1" as="geometry" />
        </mxCell>
        <mxCell id="An_t9UlqZCRhdy4P4HhH-89" value="executor" style="rounded=0;whiteSpace=wrap;html=1;fillColor=#42E0FF;fontFamily=Times New Roman;fontSize=20;" vertex="1" parent="1">
          <mxGeometry x="424.14" y="-40" width="260" height="50" as="geometry" />
        </mxCell>
        <mxCell id="An_t9UlqZCRhdy4P4HhH-90" value="request_method" style="rounded=0;whiteSpace=wrap;html=1;fillColor=#42E0FF;fontFamily=Times New Roman;fontSize=20;" vertex="1" parent="1">
          <mxGeometry x="308.14" y="180" width="260" height="50" as="geometry" />
        </mxCell>
        <mxCell id="An_t9UlqZCRhdy4P4HhH-91" value="mock_server" style="rounded=0;whiteSpace=wrap;html=1;fillColor=#42E0FF;fontFamily=Times New Roman;fontSize=20;" vertex="1" parent="1">
          <mxGeometry x="308.14" y="90" width="260" height="50" as="geometry" />
        </mxCell>
        <mxCell id="An_t9UlqZCRhdy4P4HhH-92" value="xml report generator" style="rounded=0;whiteSpace=wrap;html=1;fillColor=#42E0FF;fontFamily=Times New Roman;fontSize=20;" vertex="1" parent="1">
          <mxGeometry x="308.14" y="270" width="260" height="50" as="geometry" />
        </mxCell>
        <mxCell id="An_t9UlqZCRhdy4P4HhH-93" value="json report generator" style="rounded=0;whiteSpace=wrap;html=1;fillColor=#42E0FF;fontFamily=Times New Roman;fontSize=20;" vertex="1" parent="1">
          <mxGeometry x="308.14" y="360" width="260" height="50" as="geometry" />
        </mxCell>
        <mxCell id="An_t9UlqZCRhdy4P4HhH-94" value="html report generator" style="rounded=0;whiteSpace=wrap;html=1;fillColor=#42E0FF;fontFamily=Times New Roman;fontSize=20;" vertex="1" parent="1">
          <mxGeometry x="308.14" y="440" width="260" height="50" as="geometry" />
        </mxCell>
        <mxCell id="An_t9UlqZCRhdy4P4HhH-95" value="exceptions" style="rounded=0;whiteSpace=wrap;html=1;fillColor=#42E0FF;fontFamily=Times New Roman;fontSize=20;" vertex="1" parent="1">
          <mxGeometry x="614.14" y="100" width="260" height="50" as="geometry" />
        </mxCell>
        <mxCell id="An_t9UlqZCRhdy4P4HhH-96" value="exception_tags" style="rounded=0;whiteSpace=wrap;html=1;fillColor=#42E0FF;fontFamily=Times New Roman;fontSize=20;" vertex="1" parent="1">
          <mxGeometry x="614.14" y="180" width="260" height="50" as="geometry" />
        </mxCell>
        <mxCell id="An_t9UlqZCRhdy4P4HhH-97" value="package manager" style="rounded=0;whiteSpace=wrap;html=1;fillColor=#42E0FF;fontFamily=Times New Roman;fontSize=20;" vertex="1" parent="1">
          <mxGeometry x="614.14" y="-450" width="260" height="50" as="geometry" />
        </mxCell>
        <mxCell id="An_t9UlqZCRhdy4P4HhH-99" value="package manager" style="rounded=0;whiteSpace=wrap;html=1;fillColor=#42E0FF;fontFamily=Times New Roman;fontSize=20;" vertex="1" parent="1">
          <mxGeometry x="614.14" y="270" width="260" height="50" as="geometry" />
        </mxCell>
        <mxCell id="An_t9UlqZCRhdy4P4HhH-112" style="edgeStyle=orthogonalEdgeStyle;rounded=0;orthogonalLoop=1;jettySize=auto;html=1;exitX=0;exitY=0.5;exitDx=0;exitDy=0;entryX=0;entryY=0.5;entryDx=0;entryDy=0;" edge="1" parent="1" source="An_t9UlqZCRhdy4P4HhH-108" target="An_t9UlqZCRhdy4P4HhH-110">
          <mxGeometry relative="1" as="geometry" />
        </mxCell>
        <mxCell id="An_t9UlqZCRhdy4P4HhH-113" style="edgeStyle=orthogonalEdgeStyle;rounded=0;orthogonalLoop=1;jettySize=auto;html=1;exitX=0;exitY=0.5;exitDx=0;exitDy=0;entryX=0;entryY=0.5;entryDx=0;entryDy=0;" edge="1" parent="1" source="An_t9UlqZCRhdy4P4HhH-108" target="An_t9UlqZCRhdy4P4HhH-111">
          <mxGeometry relative="1" as="geometry" />
        </mxCell>
        <mxCell id="An_t9UlqZCRhdy4P4HhH-108" value="html report generator" style="rounded=0;whiteSpace=wrap;html=1;fillColor=#42E0FF;fontFamily=Times New Roman;fontSize=20;" vertex="1" parent="1">
          <mxGeometry x="497.78999999999996" y="1065" width="260" height="50" as="geometry" />
        </mxCell>
        <mxCell id="An_t9UlqZCRhdy4P4HhH-110" value="exceptions" style="rounded=0;whiteSpace=wrap;html=1;fillColor=#42E0FF;fontFamily=Times New Roman;fontSize=20;" vertex="1" parent="1">
          <mxGeometry x="497.78999999999996" y="1155" width="260" height="50" as="geometry" />
        </mxCell>
        <mxCell id="An_t9UlqZCRhdy4P4HhH-111" value="exception_tags" style="rounded=0;whiteSpace=wrap;html=1;fillColor=#42E0FF;fontFamily=Times New Roman;fontSize=20;" vertex="1" parent="1">
          <mxGeometry x="497.78999999999996" y="1235" width="260" height="50" as="geometry" />
        </mxCell>
        <mxCell id="An_t9UlqZCRhdy4P4HhH-115" value="HTML report generator" style="text;html=1;strokeColor=none;fillColor=none;align=center;verticalAlign=middle;whiteSpace=wrap;rounded=0;fontSize=30;fontFamily=Times New Roman;fontStyle=1" vertex="1" parent="1">
          <mxGeometry x="441.8600000000001" y="1010" width="371.86" height="30" as="geometry" />
        </mxCell>
        <mxCell id="An_t9UlqZCRhdy4P4HhH-116" value="" style="rounded=0;whiteSpace=wrap;html=1;dashed=1;" vertex="1" parent="1">
          <mxGeometry x="105.64000000000006" y="1050" width="310" height="250" as="geometry" />
        </mxCell>
        <mxCell id="An_t9UlqZCRhdy4P4HhH-126" style="edgeStyle=orthogonalEdgeStyle;rounded=0;orthogonalLoop=1;jettySize=auto;html=1;exitX=0;exitY=0.5;exitDx=0;exitDy=0;entryX=0;entryY=0.5;entryDx=0;entryDy=0;" edge="1" parent="1" source="An_t9UlqZCRhdy4P4HhH-117" target="An_t9UlqZCRhdy4P4HhH-118">
          <mxGeometry relative="1" as="geometry" />
        </mxCell>
        <mxCell id="An_t9UlqZCRhdy4P4HhH-127" style="edgeStyle=orthogonalEdgeStyle;rounded=0;orthogonalLoop=1;jettySize=auto;html=1;exitX=0;exitY=0.5;exitDx=0;exitDy=0;entryX=0;entryY=0.5;entryDx=0;entryDy=0;" edge="1" parent="1" source="An_t9UlqZCRhdy4P4HhH-117" target="An_t9UlqZCRhdy4P4HhH-119">
          <mxGeometry relative="1" as="geometry" />
        </mxCell>
        <mxCell id="An_t9UlqZCRhdy4P4HhH-117" value="html report generator" style="rounded=0;whiteSpace=wrap;html=1;fillColor=#42E0FF;fontFamily=Times New Roman;fontSize=20;" vertex="1" parent="1">
          <mxGeometry x="146.70999999999978" y="1060" width="260" height="50" as="geometry" />
        </mxCell>
        <mxCell id="An_t9UlqZCRhdy4P4HhH-118" value="exceptions" style="rounded=0;whiteSpace=wrap;html=1;fillColor=#42E0FF;fontFamily=Times New Roman;fontSize=20;" vertex="1" parent="1">
          <mxGeometry x="146.70999999999978" y="1150" width="260" height="50" as="geometry" />
        </mxCell>
        <mxCell id="An_t9UlqZCRhdy4P4HhH-119" value="exception_tags" style="rounded=0;whiteSpace=wrap;html=1;fillColor=#42E0FF;fontFamily=Times New Roman;fontSize=20;" vertex="1" parent="1">
          <mxGeometry x="146.70999999999978" y="1230" width="260" height="50" as="geometry" />
        </mxCell>
        <mxCell id="An_t9UlqZCRhdy4P4HhH-120" value="JSON report generator" style="text;html=1;strokeColor=none;fillColor=none;align=center;verticalAlign=middle;whiteSpace=wrap;rounded=0;fontSize=30;fontFamily=Times New Roman;fontStyle=1" vertex="1" parent="1">
          <mxGeometry x="74.71" y="1010" width="371.86" height="30" as="geometry" />
        </mxCell>
        <mxCell id="An_t9UlqZCRhdy4P4HhH-121" value="" style="rounded=0;whiteSpace=wrap;html=1;dashed=1;" vertex="1" parent="1">
          <mxGeometry x="836.72" y="1050" width="310" height="250" as="geometry" />
        </mxCell>
        <mxCell id="An_t9UlqZCRhdy4P4HhH-128" style="edgeStyle=orthogonalEdgeStyle;rounded=0;orthogonalLoop=1;jettySize=auto;html=1;exitX=0;exitY=0.5;exitDx=0;exitDy=0;entryX=0;entryY=0.5;entryDx=0;entryDy=0;" edge="1" parent="1" source="An_t9UlqZCRhdy4P4HhH-122" target="An_t9UlqZCRhdy4P4HhH-123">
          <mxGeometry relative="1" as="geometry" />
        </mxCell>
        <mxCell id="An_t9UlqZCRhdy4P4HhH-129" style="edgeStyle=orthogonalEdgeStyle;rounded=0;orthogonalLoop=1;jettySize=auto;html=1;exitX=0;exitY=0.5;exitDx=0;exitDy=0;entryX=0;entryY=0.5;entryDx=0;entryDy=0;" edge="1" parent="1" source="An_t9UlqZCRhdy4P4HhH-122" target="An_t9UlqZCRhdy4P4HhH-124">
          <mxGeometry relative="1" as="geometry" />
        </mxCell>
        <mxCell id="An_t9UlqZCRhdy4P4HhH-122" value="html report generator" style="rounded=0;whiteSpace=wrap;html=1;fillColor=#42E0FF;fontFamily=Times New Roman;fontSize=20;" vertex="1" parent="1">
          <mxGeometry x="874.72" y="1060" width="260" height="50" as="geometry" />
        </mxCell>
        <mxCell id="An_t9UlqZCRhdy4P4HhH-123" value="exceptions" style="rounded=0;whiteSpace=wrap;html=1;fillColor=#42E0FF;fontFamily=Times New Roman;fontSize=20;" vertex="1" parent="1">
          <mxGeometry x="874.72" y="1150" width="260" height="50" as="geometry" />
        </mxCell>
        <mxCell id="An_t9UlqZCRhdy4P4HhH-124" value="exception_tags" style="rounded=0;whiteSpace=wrap;html=1;fillColor=#42E0FF;fontFamily=Times New Roman;fontSize=20;" vertex="1" parent="1">
          <mxGeometry x="874.72" y="1230" width="260" height="50" as="geometry" />
        </mxCell>
        <mxCell id="An_t9UlqZCRhdy4P4HhH-125" value="XML report generator" style="text;html=1;strokeColor=none;fillColor=none;align=center;verticalAlign=middle;whiteSpace=wrap;rounded=0;fontSize=30;fontFamily=Times New Roman;fontStyle=1" vertex="1" parent="1">
          <mxGeometry x="805.7900000000002" y="1010" width="371.86" height="30" as="geometry" />
        </mxCell>
        <mxCell id="An_t9UlqZCRhdy4P4HhH-136" style="edgeStyle=orthogonalEdgeStyle;rounded=0;orthogonalLoop=1;jettySize=auto;html=1;exitX=0;exitY=0.5;exitDx=0;exitDy=0;entryX=0;entryY=0.5;entryDx=0;entryDy=0;" edge="1" parent="1" source="An_t9UlqZCRhdy4P4HhH-131" target="An_t9UlqZCRhdy4P4HhH-133">
          <mxGeometry relative="1" as="geometry" />
        </mxCell>
        <mxCell id="An_t9UlqZCRhdy4P4HhH-137" style="edgeStyle=orthogonalEdgeStyle;rounded=0;orthogonalLoop=1;jettySize=auto;html=1;exitX=0;exitY=0.5;exitDx=0;exitDy=0;entryX=0;entryY=0.5;entryDx=0;entryDy=0;" edge="1" parent="1" source="An_t9UlqZCRhdy4P4HhH-131" target="An_t9UlqZCRhdy4P4HhH-134">
          <mxGeometry relative="1" as="geometry" />
        </mxCell>
        <mxCell id="An_t9UlqZCRhdy4P4HhH-138" style="edgeStyle=orthogonalEdgeStyle;rounded=0;orthogonalLoop=1;jettySize=auto;html=1;exitX=0;exitY=0.5;exitDx=0;exitDy=0;entryX=0;entryY=0.5;entryDx=0;entryDy=0;" edge="1" parent="1" source="An_t9UlqZCRhdy4P4HhH-131" target="An_t9UlqZCRhdy4P4HhH-135">
          <mxGeometry relative="1" as="geometry" />
        </mxCell>
        <mxCell id="An_t9UlqZCRhdy4P4HhH-140" style="edgeStyle=orthogonalEdgeStyle;rounded=0;orthogonalLoop=1;jettySize=auto;html=1;exitX=1;exitY=0.5;exitDx=0;exitDy=0;entryX=0.5;entryY=1;entryDx=0;entryDy=0;" edge="1" parent="1" source="An_t9UlqZCRhdy4P4HhH-131" target="An_t9UlqZCRhdy4P4HhH-4">
          <mxGeometry relative="1" as="geometry" />
        </mxCell>
        <mxCell id="An_t9UlqZCRhdy4P4HhH-131" value="get api data" style="rounded=0;whiteSpace=wrap;html=1;fillColor=#42E0FF;fontFamily=Times New Roman;fontSize=20;" vertex="1" parent="1">
          <mxGeometry x="1935" y="-140" width="260" height="50" as="geometry" />
        </mxCell>
        <mxCell id="An_t9UlqZCRhdy4P4HhH-133" value="exceptions" style="rounded=0;whiteSpace=wrap;html=1;fillColor=#42E0FF;fontFamily=Times New Roman;fontSize=20;" vertex="1" parent="1">
          <mxGeometry x="1893.07" y="-60" width="260" height="50" as="geometry" />
        </mxCell>
        <mxCell id="An_t9UlqZCRhdy4P4HhH-134" value="exception_tags" style="rounded=0;whiteSpace=wrap;html=1;fillColor=#42E0FF;fontFamily=Times New Roman;fontSize=20;" vertex="1" parent="1">
          <mxGeometry x="1893.07" y="20" width="260" height="50" as="geometry" />
        </mxCell>
        <mxCell id="An_t9UlqZCRhdy4P4HhH-135" value="test record" style="rounded=0;whiteSpace=wrap;html=1;fillColor=#42E0FF;fontFamily=Times New Roman;fontSize=20;" vertex="1" parent="1">
          <mxGeometry x="1894.07" y="110" width="260" height="50" as="geometry" />
        </mxCell>
        <mxCell id="An_t9UlqZCRhdy4P4HhH-139" value="Get API data" style="text;html=1;strokeColor=none;fillColor=none;align=center;verticalAlign=middle;whiteSpace=wrap;rounded=0;fontSize=30;fontFamily=Times New Roman;fontStyle=1" vertex="1" parent="1">
          <mxGeometry x="1893.07" y="-200" width="263.86" height="30" as="geometry" />
        </mxCell>
        <mxCell id="An_t9UlqZCRhdy4P4HhH-146" style="edgeStyle=orthogonalEdgeStyle;rounded=0;orthogonalLoop=1;jettySize=auto;html=1;exitX=0.5;exitY=1;exitDx=0;exitDy=0;entryX=0;entryY=0.5;entryDx=0;entryDy=0;" edge="1" parent="1" source="An_t9UlqZCRhdy4P4HhH-141" target="An_t9UlqZCRhdy4P4HhH-144">
          <mxGeometry relative="1" as="geometry" />
        </mxCell>
        <mxCell id="An_t9UlqZCRhdy4P4HhH-147" style="edgeStyle=orthogonalEdgeStyle;rounded=0;orthogonalLoop=1;jettySize=auto;html=1;exitX=0.5;exitY=1;exitDx=0;exitDy=0;entryX=0;entryY=0.5;entryDx=0;entryDy=0;" edge="1" parent="1" source="An_t9UlqZCRhdy4P4HhH-141" target="An_t9UlqZCRhdy4P4HhH-143">
          <mxGeometry relative="1" as="geometry" />
        </mxCell>
        <mxCell id="An_t9UlqZCRhdy4P4HhH-141" value="JSON file" style="rounded=0;whiteSpace=wrap;html=1;fillColor=#42E0FF;fontFamily=Times New Roman;fontSize=20;" vertex="1" parent="1">
          <mxGeometry x="1150" y="-140" width="260" height="50" as="geometry" />
        </mxCell>
        <mxCell id="An_t9UlqZCRhdy4P4HhH-142" value="JSON" style="text;html=1;strokeColor=none;fillColor=none;align=center;verticalAlign=middle;whiteSpace=wrap;rounded=0;fontSize=30;fontFamily=Times New Roman;fontStyle=1" vertex="1" parent="1">
          <mxGeometry x="1310" y="-200" width="263.86" height="30" as="geometry" />
        </mxCell>
        <mxCell id="An_t9UlqZCRhdy4P4HhH-143" value="exceptions" style="rounded=0;whiteSpace=wrap;html=1;fillColor=#42E0FF;fontFamily=Times New Roman;fontSize=20;" vertex="1" parent="1">
          <mxGeometry x="1310" y="-40" width="260" height="50" as="geometry" />
        </mxCell>
        <mxCell id="An_t9UlqZCRhdy4P4HhH-144" value="exception_tags" style="rounded=0;whiteSpace=wrap;html=1;fillColor=#42E0FF;fontFamily=Times New Roman;fontSize=20;" vertex="1" parent="1">
          <mxGeometry x="1310" y="40" width="260" height="50" as="geometry" />
        </mxCell>
        <mxCell id="An_t9UlqZCRhdy4P4HhH-148" style="edgeStyle=orthogonalEdgeStyle;rounded=0;orthogonalLoop=1;jettySize=auto;html=1;exitX=0.5;exitY=1;exitDx=0;exitDy=0;entryX=1;entryY=0.5;entryDx=0;entryDy=0;" edge="1" parent="1" source="An_t9UlqZCRhdy4P4HhH-145" target="An_t9UlqZCRhdy4P4HhH-143">
          <mxGeometry relative="1" as="geometry" />
        </mxCell>
        <mxCell id="An_t9UlqZCRhdy4P4HhH-149" style="edgeStyle=orthogonalEdgeStyle;rounded=0;orthogonalLoop=1;jettySize=auto;html=1;exitX=0.5;exitY=1;exitDx=0;exitDy=0;entryX=1;entryY=0.5;entryDx=0;entryDy=0;" edge="1" parent="1" source="An_t9UlqZCRhdy4P4HhH-145" target="An_t9UlqZCRhdy4P4HhH-144">
          <mxGeometry relative="1" as="geometry" />
        </mxCell>
        <mxCell id="An_t9UlqZCRhdy4P4HhH-145" value="JSON process" style="rounded=0;whiteSpace=wrap;html=1;fillColor=#42E0FF;fontFamily=Times New Roman;fontSize=20;" vertex="1" parent="1">
          <mxGeometry x="1468" y="-140" width="260" height="50" as="geometry" />
        </mxCell>
        <mxCell id="An_t9UlqZCRhdy4P4HhH-154" style="edgeStyle=orthogonalEdgeStyle;rounded=0;orthogonalLoop=1;jettySize=auto;html=1;exitX=1;exitY=0.5;exitDx=0;exitDy=0;entryX=0;entryY=0.5;entryDx=0;entryDy=0;" edge="1" parent="1" source="An_t9UlqZCRhdy4P4HhH-151" target="An_t9UlqZCRhdy4P4HhH-6">
          <mxGeometry relative="1" as="geometry" />
        </mxCell>
        <mxCell id="An_t9UlqZCRhdy4P4HhH-151" value="Flask Mockserver" style="rounded=0;whiteSpace=wrap;html=1;fillColor=#42E0FF;fontFamily=Times New Roman;fontSize=20;" vertex="1" parent="1">
          <mxGeometry x="1896.9299999999998" y="310" width="260" height="50" as="geometry" />
        </mxCell>
        <mxCell id="An_t9UlqZCRhdy4P4HhH-153" value="Flask Mock Server" style="text;html=1;strokeColor=none;fillColor=none;align=center;verticalAlign=middle;whiteSpace=wrap;rounded=0;fontSize=30;fontFamily=Times New Roman;fontStyle=1" vertex="1" parent="1">
          <mxGeometry x="1896.9299999999998" y="230" width="263.86" height="30" as="geometry" />
        </mxCell>
        <mxCell id="An_t9UlqZCRhdy4P4HhH-155" value="" style="rounded=0;whiteSpace=wrap;html=1;dashed=1;" vertex="1" parent="1">
          <mxGeometry x="105.63999999999987" y="830" width="400" height="110" as="geometry" />
        </mxCell>
        <mxCell id="An_t9UlqZCRhdy4P4HhH-156" value="get dir file list" style="rounded=0;whiteSpace=wrap;html=1;fillColor=#42E0FF;fontFamily=Times New Roman;fontSize=20;" vertex="1" parent="1">
          <mxGeometry x="175.63999999999987" y="860" width="260" height="50" as="geometry" />
        </mxCell>
        <mxCell id="An_t9UlqZCRhdy4P4HhH-157" value="File process" style="text;html=1;strokeColor=none;fillColor=none;align=center;verticalAlign=middle;whiteSpace=wrap;rounded=0;fontSize=30;fontFamily=Times New Roman;fontStyle=1" vertex="1" parent="1">
          <mxGeometry x="175.63999999999987" y="780" width="263.86" height="30" as="geometry" />
        </mxCell>
        <mxCell id="An_t9UlqZCRhdy4P4HhH-158" value="" style="rounded=0;whiteSpace=wrap;html=1;dashed=1;" vertex="1" parent="1">
          <mxGeometry x="1170" y="1130" width="400" height="170" as="geometry" />
        </mxCell>
        <mxCell id="An_t9UlqZCRhdy4P4HhH-159" value="exceptions" style="rounded=0;whiteSpace=wrap;html=1;fillColor=#42E0FF;fontFamily=Times New Roman;fontSize=20;" vertex="1" parent="1">
          <mxGeometry x="1240" y="1160" width="260" height="50" as="geometry" />
        </mxCell>
        <mxCell id="An_t9UlqZCRhdy4P4HhH-160" value="Exceptions" style="text;html=1;strokeColor=none;fillColor=none;align=center;verticalAlign=middle;whiteSpace=wrap;rounded=0;fontSize=30;fontFamily=Times New Roman;fontStyle=1" vertex="1" parent="1">
          <mxGeometry x="1240" y="1080" width="263.86" height="30" as="geometry" />
        </mxCell>
        <mxCell id="An_t9UlqZCRhdy4P4HhH-161" value="exception_tags" style="rounded=0;whiteSpace=wrap;html=1;fillColor=#42E0FF;fontFamily=Times New Roman;fontSize=20;" vertex="1" parent="1">
          <mxGeometry x="1241.9300000000003" y="1230" width="260" height="50" as="geometry" />
        </mxCell>
        <mxCell id="An_t9UlqZCRhdy4P4HhH-162" value="" style="rounded=0;whiteSpace=wrap;html=1;dashed=1;" vertex="1" parent="1">
          <mxGeometry x="1150" y="220" width="592" height="290" as="geometry" />
        </mxCell>
        <mxCell id="An_t9UlqZCRhdy4P4HhH-163" value="template executor" style="rounded=0;whiteSpace=wrap;html=1;fillColor=#42E0FF;fontFamily=Times New Roman;fontSize=20;" vertex="1" parent="1">
          <mxGeometry x="1184.8600000000006" y="355" width="260" height="50" as="geometry" />
        </mxCell>
        <mxCell id="An_t9UlqZCRhdy4P4HhH-164" value="project" style="text;html=1;strokeColor=none;fillColor=none;align=center;verticalAlign=middle;whiteSpace=wrap;rounded=0;fontSize=30;fontFamily=Times New Roman;fontStyle=1" vertex="1" parent="1">
          <mxGeometry x="1314.0700000000002" y="180" width="263.86" height="30" as="geometry" />
        </mxCell>
        <mxCell id="An_t9UlqZCRhdy4P4HhH-165" value="template keyword" style="rounded=0;whiteSpace=wrap;html=1;fillColor=#42E0FF;fontFamily=Times New Roman;fontSize=20;" vertex="1" parent="1">
          <mxGeometry x="1184.8600000000006" y="425" width="260" height="50" as="geometry" />
        </mxCell>
        <mxCell id="An_t9UlqZCRhdy4P4HhH-167" style="edgeStyle=orthogonalEdgeStyle;rounded=0;orthogonalLoop=1;jettySize=auto;html=1;exitX=0;exitY=0.5;exitDx=0;exitDy=0;entryX=0;entryY=0.5;entryDx=0;entryDy=0;" edge="1" parent="1" source="An_t9UlqZCRhdy4P4HhH-166" target="An_t9UlqZCRhdy4P4HhH-163">
          <mxGeometry relative="1" as="geometry" />
        </mxCell>
        <mxCell id="An_t9UlqZCRhdy4P4HhH-168" style="edgeStyle=orthogonalEdgeStyle;rounded=0;orthogonalLoop=1;jettySize=auto;html=1;exitX=0;exitY=0.5;exitDx=0;exitDy=0;entryX=0;entryY=0.5;entryDx=0;entryDy=0;" edge="1" parent="1" source="An_t9UlqZCRhdy4P4HhH-166" target="An_t9UlqZCRhdy4P4HhH-165">
          <mxGeometry relative="1" as="geometry" />
        </mxCell>
        <mxCell id="An_t9UlqZCRhdy4P4HhH-170" style="edgeStyle=orthogonalEdgeStyle;rounded=0;orthogonalLoop=1;jettySize=auto;html=1;exitX=1;exitY=0.5;exitDx=0;exitDy=0;entryX=0.5;entryY=0;entryDx=0;entryDy=0;" edge="1" parent="1" source="An_t9UlqZCRhdy4P4HhH-166" target="An_t9UlqZCRhdy4P4HhH-169">
          <mxGeometry relative="1" as="geometry" />
        </mxCell>
        <mxCell id="An_t9UlqZCRhdy4P4HhH-166" value="create project dir" style="rounded=0;whiteSpace=wrap;html=1;fillColor=#42E0FF;fontFamily=Times New Roman;fontSize=20;" vertex="1" parent="1">
          <mxGeometry x="1232.0000000000005" y="240" width="260" height="50" as="geometry" />
        </mxCell>
        <mxCell id="An_t9UlqZCRhdy4P4HhH-169" value="JSON file" style="rounded=0;whiteSpace=wrap;html=1;fillColor=#42E0FF;fontFamily=Times New Roman;fontSize=20;" vertex="1" parent="1">
          <mxGeometry x="1458.9300000000003" y="355" width="260" height="50" as="geometry" />
        </mxCell>
        <mxCell id="An_t9UlqZCRhdy4P4HhH-175" value="" style="rounded=0;whiteSpace=wrap;html=1;dashed=1;" vertex="1" parent="1">
          <mxGeometry x="1598" y="1130" width="320" height="170" as="geometry" />
        </mxCell>
        <mxCell id="An_t9UlqZCRhdy4P4HhH-179" style="edgeStyle=orthogonalEdgeStyle;rounded=0;orthogonalLoop=1;jettySize=auto;html=1;exitX=0;exitY=0.5;exitDx=0;exitDy=0;entryX=0;entryY=0.5;entryDx=0;entryDy=0;" edge="1" parent="1" source="An_t9UlqZCRhdy4P4HhH-176" target="An_t9UlqZCRhdy4P4HhH-178">
          <mxGeometry relative="1" as="geometry" />
        </mxCell>
        <mxCell id="An_t9UlqZCRhdy4P4HhH-176" value="socket server" style="rounded=0;whiteSpace=wrap;html=1;fillColor=#42E0FF;fontFamily=Times New Roman;fontSize=20;" vertex="1" parent="1">
          <mxGeometry x="1638" y="1160" width="260" height="50" as="geometry" />
        </mxCell>
        <mxCell id="An_t9UlqZCRhdy4P4HhH-177" value="Socket server" style="text;html=1;strokeColor=none;fillColor=none;align=center;verticalAlign=middle;whiteSpace=wrap;rounded=0;fontSize=30;fontFamily=Times New Roman;fontStyle=1" vertex="1" parent="1">
          <mxGeometry x="1626.0700000000002" y="1085" width="263.86" height="30" as="geometry" />
        </mxCell>
        <mxCell id="An_t9UlqZCRhdy4P4HhH-178" value="execute action" style="rounded=0;whiteSpace=wrap;html=1;fillColor=#42E0FF;fontFamily=Times New Roman;fontSize=20;" vertex="1" parent="1">
          <mxGeometry x="1639.9300000000003" y="1230" width="260" height="50" as="geometry" />
        </mxCell>
        <mxCell id="An_t9UlqZCRhdy4P4HhH-182" value="" style="rounded=0;whiteSpace=wrap;html=1;dashed=1;" vertex="1" parent="1">
          <mxGeometry x="1969.86" y="1190" width="400" height="110" as="geometry" />
        </mxCell>
        <mxCell id="An_t9UlqZCRhdy4P4HhH-183" value="test record" style="rounded=0;whiteSpace=wrap;html=1;fillColor=#42E0FF;fontFamily=Times New Roman;fontSize=20;" vertex="1" parent="1">
          <mxGeometry x="2039.86" y="1220" width="260" height="50" as="geometry" />
        </mxCell>
        <mxCell id="An_t9UlqZCRhdy4P4HhH-184" value="Test record" style="text;html=1;strokeColor=none;fillColor=none;align=center;verticalAlign=middle;whiteSpace=wrap;rounded=0;fontSize=30;fontFamily=Times New Roman;fontStyle=1" vertex="1" parent="1">
          <mxGeometry x="2039.86" y="1140" width="263.86" height="30" as="geometry" />
        </mxCell>
        <mxCell id="An_t9UlqZCRhdy4P4HhH-186" value="" style="rounded=0;whiteSpace=wrap;html=1;dashed=1;" vertex="1" parent="1">
          <mxGeometry x="1991.8600000000001" y="690" width="356" height="320" as="geometry" />
        </mxCell>
        <mxCell id="An_t9UlqZCRhdy4P4HhH-187" value="xml" style="text;html=1;strokeColor=none;fillColor=none;align=center;verticalAlign=middle;whiteSpace=wrap;rounded=0;fontSize=30;fontFamily=Times New Roman;fontStyle=1" vertex="1" parent="1">
          <mxGeometry x="2025.5100000000002" y="650" width="263.86" height="30" as="geometry" />
        </mxCell>
        <mxCell id="An_t9UlqZCRhdy4P4HhH-193" style="edgeStyle=orthogonalEdgeStyle;rounded=0;orthogonalLoop=1;jettySize=auto;html=1;exitX=0;exitY=0.5;exitDx=0;exitDy=0;entryX=0;entryY=0.5;entryDx=0;entryDy=0;" edge="1" parent="1" source="An_t9UlqZCRhdy4P4HhH-189" target="An_t9UlqZCRhdy4P4HhH-190">
          <mxGeometry relative="1" as="geometry" />
        </mxCell>
        <mxCell id="An_t9UlqZCRhdy4P4HhH-194" style="edgeStyle=orthogonalEdgeStyle;rounded=0;orthogonalLoop=1;jettySize=auto;html=1;exitX=0;exitY=0.5;exitDx=0;exitDy=0;entryX=0;entryY=0.5;entryDx=0;entryDy=0;" edge="1" parent="1" source="An_t9UlqZCRhdy4P4HhH-189" target="An_t9UlqZCRhdy4P4HhH-191">
          <mxGeometry relative="1" as="geometry" />
        </mxCell>
        <mxCell id="An_t9UlqZCRhdy4P4HhH-195" style="edgeStyle=orthogonalEdgeStyle;rounded=0;orthogonalLoop=1;jettySize=auto;html=1;exitX=0;exitY=0.5;exitDx=0;exitDy=0;entryX=0;entryY=0.5;entryDx=0;entryDy=0;" edge="1" parent="1" source="An_t9UlqZCRhdy4P4HhH-189" target="An_t9UlqZCRhdy4P4HhH-192">
          <mxGeometry relative="1" as="geometry" />
        </mxCell>
        <mxCell id="An_t9UlqZCRhdy4P4HhH-189" value="xml file" style="rounded=0;whiteSpace=wrap;html=1;fillColor=#42E0FF;fontFamily=Times New Roman;fontSize=20;" vertex="1" parent="1">
          <mxGeometry x="2046.7900000000004" y="715" width="260" height="50" as="geometry" />
        </mxCell>
        <mxCell id="An_t9UlqZCRhdy4P4HhH-190" value="xml structure" style="rounded=0;whiteSpace=wrap;html=1;fillColor=#42E0FF;fontFamily=Times New Roman;fontSize=20;" vertex="1" parent="1">
          <mxGeometry x="2044.8600000000006" y="795" width="260" height="50" as="geometry" />
        </mxCell>
        <mxCell id="An_t9UlqZCRhdy4P4HhH-191" value="exceptions" style="rounded=0;whiteSpace=wrap;html=1;fillColor=#42E0FF;fontFamily=Times New Roman;fontSize=20;" vertex="1" parent="1">
          <mxGeometry x="2044.8600000000001" y="865" width="260" height="50" as="geometry" />
        </mxCell>
        <mxCell id="An_t9UlqZCRhdy4P4HhH-192" value="exception_tags" style="rounded=0;whiteSpace=wrap;html=1;fillColor=#42E0FF;fontFamily=Times New Roman;fontSize=20;" vertex="1" parent="1">
          <mxGeometry x="2044.8600000000001" y="935" width="260" height="50" as="geometry" />
        </mxCell>
        <mxCell id="An_t9UlqZCRhdy4P4HhH-196" value="Interpreter pattern" style="text;html=1;strokeColor=none;fillColor=none;align=center;verticalAlign=middle;whiteSpace=wrap;rounded=0;fontSize=20;fontFamily=Times New Roman;" vertex="1" parent="1">
          <mxGeometry x="464.14" y="-80" width="180" height="30" as="geometry" />
        </mxCell>
        <mxCell id="An_t9UlqZCRhdy4P4HhH-197" value="Interpreter pattern" style="text;html=1;strokeColor=none;fillColor=none;align=center;verticalAlign=middle;whiteSpace=wrap;rounded=0;fontSize=20;fontFamily=Times New Roman;" vertex="1" parent="1">
          <mxGeometry x="458.14" y="-790" width="180" height="30" as="geometry" />
        </mxCell>
        <mxCell id="An_t9UlqZCRhdy4P4HhH-198" value="Interpreter pattern" style="text;html=1;strokeColor=none;fillColor=none;align=center;verticalAlign=middle;whiteSpace=wrap;rounded=0;fontSize=20;fontFamily=Times New Roman;" vertex="1" parent="1">
          <mxGeometry x="1678" y="1125" width="180" height="30" as="geometry" />
        </mxCell>
        <mxCell id="An_t9UlqZCRhdy4P4HhH-199" value="Singelton pattern" style="text;html=1;strokeColor=none;fillColor=none;align=center;verticalAlign=middle;whiteSpace=wrap;rounded=0;fontSize=20;fontFamily=Times New Roman;" vertex="1" parent="1">
          <mxGeometry x="2081.79" y="1190" width="180" height="30" as="geometry" />
        </mxCell>
      </root>
    </mxGraphModel>
  </diagram>
</mxfile>
